<svg width="35" height="36" viewBox="0 0 35 36" fill="none" xmlns="http://www.w3.org/2000/svg">
<g clip-path="url(#clip0_1_51)">
<path d="M30.6999 15.5H4.29988C3.92493 15.4924 3.55307 15.5693 3.21185 15.7249C2.87064 15.8805 2.5688 16.1109 2.32871 16.399C2.08863 16.6871 1.91643 17.0256 1.82489 17.3893C1.73335 17.7529 1.7248 18.1326 1.79988 18.5L4.54988 32.25C4.66676 32.8232 4.98094 33.3372 5.43774 33.7027C5.89453 34.0681 6.46502 34.2618 7.04988 34.25H27.9499C28.5347 34.2618 29.1052 34.0681 29.562 33.7027C30.0188 33.3372 30.333 32.8232 30.4499 32.25L33.1999 18.5C33.275 18.1326 33.2664 17.7529 33.1749 17.3893C33.0833 17.0256 32.9111 16.6871 32.6711 16.399C32.431 16.1109 32.1291 15.8805 31.7879 15.7249C31.4467 15.5693 31.0748 15.4924 30.6999 15.5ZM22.4999 6.75L27.4999 15.5ZM7.49988 15.5L12.4999 6.75Z" fill="black"/>
<path d="M22.4999 6.75L27.4999 15.5M7.49988 15.5L12.4999 6.75M30.6999 15.5H4.29988C3.92493 15.4924 3.55307 15.5693 3.21185 15.7249C2.87064 15.8805 2.5688 16.1109 2.32871 16.399C2.08863 16.6871 1.91643 17.0256 1.82489 17.3893C1.73335 17.7529 1.7248 18.1326 1.79988 18.5L4.54988 32.25C4.66676 32.8232 4.98094 33.3372 5.43774 33.7027C5.89453 34.0681 6.46502 34.2618 7.04988 34.25H27.9499C28.5347 34.2618 29.1052 34.0681 29.562 33.7027C30.0188 33.3372 30.333 32.8232 30.4499 32.25L33.1999 18.5C33.275 18.1326 33.2664 17.7529 33.1749 17.3893C33.0833 17.0256 32.9111 16.6871 32.6711 16.399C32.431 16.1109 32.1291 15.8805 31.7879 15.7249C31.4467 15.5693 31.0748 15.4924 30.6999 15.5Z" stroke="black" stroke-width="3.42857" stroke-linecap="round" stroke-linejoin="round"/>
</g>
<defs>
<clipPath id="clip0_1_51">
<rect width="35" height="35" fill="white" transform="translate(0 0.5)"/>
</clipPath>
</defs>
</svg>
